<?xml version="1.0" encoding="UTF-8"?>
<svg id="Layer_1" xmlns="http://www.w3.org/2000/svg" xmlns:xlink="http://www.w3.org/1999/xlink" version="1.1" viewBox="0 0 429.32 244.23">
  <!-- Generator: Adobe Illustrator 29.7.1, SVG Export Plug-In . SVG Version: 2.1.1 Build 8)  -->
  <defs>
    <style>
      .st0 {
        fill: url(#linear-gradient2);
      }

      .st1 {
        fill: url(#linear-gradient1);
      }

      .st2 {
        fill: url(#linear-gradient9);
      }

      .st3 {
        fill: url(#linear-gradient3);
      }

      .st4 {
        fill: url(#linear-gradient6);
      }

      .st5 {
        fill: url(#linear-gradient8);
      }

      .st6 {
        fill: url(#linear-gradient7);
      }

      .st7 {
        fill: url(#linear-gradient5);
      }

      .st8 {
        fill: url(#linear-gradient4);
      }

      .st9 {
        fill: url(#linear-gradient18);
      }

      .st10 {
        fill: url(#linear-gradient13);
      }

      .st11 {
        fill: url(#linear-gradient12);
      }

      .st12 {
        fill: url(#linear-gradient15);
      }

      .st13 {
        fill: url(#linear-gradient16);
      }

      .st14 {
        fill: url(#linear-gradient11);
      }

      .st15 {
        fill: url(#linear-gradient10);
      }

      .st16 {
        fill: url(#linear-gradient17);
      }

      .st17 {
        fill: url(#linear-gradient14);
      }

      .st18 {
        fill: url(#linear-gradient);
      }

      .st19 {
        fill: #483a8e;
      }
    </style>
    <linearGradient id="linear-gradient" x1="120.8" y1="102.8" x2="120.8" y2="143.49" gradientTransform="translate(0 -97.34)" gradientUnits="userSpaceOnUse">
      <stop offset="0" stop-color="#483a8e"/>
      <stop offset=".24" stop-color="#7a3a7a"/>
      <stop offset=".48" stop-color="#a53a68"/>
      <stop offset=".69" stop-color="#c33a5b"/>
      <stop offset=".87" stop-color="#d63a54"/>
      <stop offset="1" stop-color="#dd3a51"/>
    </linearGradient>
    <linearGradient id="linear-gradient1" x1="120.8" y1="296.79" x2="120.8" y2="337.47" gradientTransform="translate(0 -97.34)" gradientUnits="userSpaceOnUse">
      <stop offset="0" stop-color="#483a8e"/>
      <stop offset=".24" stop-color="#7a3a7a"/>
      <stop offset=".48" stop-color="#a53a68"/>
      <stop offset=".69" stop-color="#c33a5b"/>
      <stop offset=".87" stop-color="#d63a54"/>
      <stop offset="1" stop-color="#dd3a51"/>
    </linearGradient>
    <linearGradient id="linear-gradient2" x1="32.09" y1="146.56" x2="32.09" y2="181.76" gradientTransform="translate(0 -97.34)" gradientUnits="userSpaceOnUse">
      <stop offset="0" stop-color="#483a8e"/>
      <stop offset=".24" stop-color="#7a3a7a"/>
      <stop offset=".48" stop-color="#a53a68"/>
      <stop offset=".69" stop-color="#c33a5b"/>
      <stop offset=".87" stop-color="#d63a54"/>
      <stop offset="1" stop-color="#dd3a51"/>
    </linearGradient>
    <linearGradient id="linear-gradient3" x1="31.59" y1="259.45" x2="31.59" y2="293.6" gradientTransform="translate(0 -97.34)" gradientUnits="userSpaceOnUse">
      <stop offset="0" stop-color="#483a8e"/>
      <stop offset=".24" stop-color="#7a3a7a"/>
      <stop offset=".48" stop-color="#a53a68"/>
      <stop offset=".69" stop-color="#c33a5b"/>
      <stop offset=".87" stop-color="#d63a54"/>
      <stop offset="1" stop-color="#dd3a51"/>
    </linearGradient>
    <linearGradient id="linear-gradient4" x1="23.19" y1="207.15" x2="23.19" y2="232.05" gradientTransform="translate(0 -97.34)" gradientUnits="userSpaceOnUse">
      <stop offset="0" stop-color="#483a8e"/>
      <stop offset=".24" stop-color="#7a3a7a"/>
      <stop offset=".48" stop-color="#a53a68"/>
      <stop offset=".69" stop-color="#c33a5b"/>
      <stop offset=".87" stop-color="#d63a54"/>
      <stop offset="1" stop-color="#dd3a51"/>
    </linearGradient>
    <linearGradient id="linear-gradient5" x1="40.03" y1="223.81" x2="40.03" y2="248.94" gradientTransform="translate(0 -97.34)" gradientUnits="userSpaceOnUse">
      <stop offset="0" stop-color="#483a8e"/>
      <stop offset=".24" stop-color="#7a3a7a"/>
      <stop offset=".48" stop-color="#a53a68"/>
      <stop offset=".69" stop-color="#c33a5b"/>
      <stop offset=".87" stop-color="#d63a54"/>
      <stop offset="1" stop-color="#dd3a51"/>
    </linearGradient>
    <linearGradient id="linear-gradient6" x1="40.16" y1="190.2" x2="40.16" y2="215.2" gradientTransform="translate(0 -97.34)" gradientUnits="userSpaceOnUse">
      <stop offset="0" stop-color="#483a8e"/>
      <stop offset=".24" stop-color="#7a3a7a"/>
      <stop offset=".48" stop-color="#a53a68"/>
      <stop offset=".69" stop-color="#c33a5b"/>
      <stop offset=".87" stop-color="#d63a54"/>
      <stop offset="1" stop-color="#dd3a51"/>
    </linearGradient>
    <linearGradient id="linear-gradient7" x1="68" y1="288.7" x2="68" y2="324.18" gradientTransform="translate(0 -97.34)" gradientUnits="userSpaceOnUse">
      <stop offset="0" stop-color="#483a8e"/>
      <stop offset=".24" stop-color="#7a3a7a"/>
      <stop offset=".48" stop-color="#a53a68"/>
      <stop offset=".69" stop-color="#c33a5b"/>
      <stop offset=".87" stop-color="#d63a54"/>
      <stop offset="1" stop-color="#dd3a51"/>
    </linearGradient>
    <linearGradient id="linear-gradient8" x1="99.95" y1="268.14" x2="99.95" y2="332.45" gradientTransform="translate(0 -97.34)" gradientUnits="userSpaceOnUse">
      <stop offset="0" stop-color="#483a8e"/>
      <stop offset=".24" stop-color="#7a3a7a"/>
      <stop offset=".48" stop-color="#a53a68"/>
      <stop offset=".69" stop-color="#c33a5b"/>
      <stop offset=".87" stop-color="#d63a54"/>
      <stop offset="1" stop-color="#dd3a51"/>
    </linearGradient>
    <linearGradient id="linear-gradient9" x1="65.79" y1="257.62" x2="65.79" y2="300.59" gradientTransform="translate(0 -97.34)" gradientUnits="userSpaceOnUse">
      <stop offset="0" stop-color="#483a8e"/>
      <stop offset=".24" stop-color="#7a3a7a"/>
      <stop offset=".48" stop-color="#a53a68"/>
      <stop offset=".69" stop-color="#c33a5b"/>
      <stop offset=".87" stop-color="#d63a54"/>
      <stop offset="1" stop-color="#dd3a51"/>
    </linearGradient>
    <linearGradient id="linear-gradient10" x1="69.23" y1="116.35" x2="69.23" y2="152.69" gradientTransform="translate(0 -97.34)" gradientUnits="userSpaceOnUse">
      <stop offset="0" stop-color="#483a8e"/>
      <stop offset=".24" stop-color="#7a3a7a"/>
      <stop offset=".48" stop-color="#a53a68"/>
      <stop offset=".69" stop-color="#c33a5b"/>
      <stop offset=".87" stop-color="#d63a54"/>
      <stop offset="1" stop-color="#dd3a51"/>
    </linearGradient>
    <linearGradient id="linear-gradient11" x1="65.92" y1="137.95" x2="65.92" y2="183.24" gradientTransform="translate(0 -97.34)" gradientUnits="userSpaceOnUse">
      <stop offset="0" stop-color="#483a8e"/>
      <stop offset=".24" stop-color="#7a3a7a"/>
      <stop offset=".48" stop-color="#a53a68"/>
      <stop offset=".69" stop-color="#c33a5b"/>
      <stop offset=".87" stop-color="#d63a54"/>
      <stop offset="1" stop-color="#dd3a51"/>
    </linearGradient>
    <linearGradient id="linear-gradient12" x1="101.97" y1="109.59" x2="101.97" y2="174.22" gradientTransform="translate(0 -97.34)" gradientUnits="userSpaceOnUse">
      <stop offset="0" stop-color="#483a8e"/>
      <stop offset=".24" stop-color="#7a3a7a"/>
      <stop offset=".48" stop-color="#a53a68"/>
      <stop offset=".69" stop-color="#c33a5b"/>
      <stop offset=".87" stop-color="#d63a54"/>
      <stop offset="1" stop-color="#dd3a51"/>
    </linearGradient>
    <linearGradient id="linear-gradient13" x1="173.47" y1="286.96" x2="173.47" y2="323.3" gradientTransform="translate(0 -97.34)" gradientUnits="userSpaceOnUse">
      <stop offset="0" stop-color="#483a8e"/>
      <stop offset=".24" stop-color="#7a3a7a"/>
      <stop offset=".48" stop-color="#a53a68"/>
      <stop offset=".69" stop-color="#c33a5b"/>
      <stop offset=".87" stop-color="#d63a54"/>
      <stop offset="1" stop-color="#dd3a51"/>
    </linearGradient>
    <linearGradient id="linear-gradient14" x1="176.78" y1="256.4" x2="176.78" y2="301.69" gradientTransform="translate(0 -97.34)" gradientUnits="userSpaceOnUse">
      <stop offset="0" stop-color="#483a8e"/>
      <stop offset=".24" stop-color="#7a3a7a"/>
      <stop offset=".48" stop-color="#a53a68"/>
      <stop offset=".69" stop-color="#c33a5b"/>
      <stop offset=".87" stop-color="#d63a54"/>
      <stop offset="1" stop-color="#dd3a51"/>
    </linearGradient>
    <linearGradient id="linear-gradient15" x1="140.73" y1="265.42" x2="140.73" y2="330.05" gradientTransform="translate(0 -97.34)" gradientUnits="userSpaceOnUse">
      <stop offset="0" stop-color="#483a8e"/>
      <stop offset=".24" stop-color="#7a3a7a"/>
      <stop offset=".48" stop-color="#a53a68"/>
      <stop offset=".69" stop-color="#c33a5b"/>
      <stop offset=".87" stop-color="#d63a54"/>
      <stop offset="1" stop-color="#dd3a51"/>
    </linearGradient>
    <linearGradient id="linear-gradient16" x1="173.22" y1="115.79" x2="173.22" y2="152" gradientTransform="translate(0 -97.34)" gradientUnits="userSpaceOnUse">
      <stop offset="0" stop-color="#483a8e"/>
      <stop offset=".24" stop-color="#7a3a7a"/>
      <stop offset=".48" stop-color="#a53a68"/>
      <stop offset=".69" stop-color="#c33a5b"/>
      <stop offset=".87" stop-color="#d63a54"/>
      <stop offset="1" stop-color="#dd3a51"/>
    </linearGradient>
    <linearGradient id="linear-gradient17" x1="140.91" y1="108.65" x2="140.91" y2="173.47" gradientTransform="translate(0 -97.34)" gradientUnits="userSpaceOnUse">
      <stop offset="0" stop-color="#483a8e"/>
      <stop offset=".24" stop-color="#7a3a7a"/>
      <stop offset=".48" stop-color="#a53a68"/>
      <stop offset=".69" stop-color="#c33a5b"/>
      <stop offset=".87" stop-color="#d63a54"/>
      <stop offset="1" stop-color="#dd3a51"/>
    </linearGradient>
    <linearGradient id="linear-gradient18" x1="176.38" y1="137.89" x2="176.38" y2="182.91" gradientTransform="translate(0 -97.34)" gradientUnits="userSpaceOnUse">
      <stop offset="0" stop-color="#483a8e"/>
      <stop offset=".24" stop-color="#7a3a7a"/>
      <stop offset=".48" stop-color="#a53a68"/>
      <stop offset=".69" stop-color="#c33a5b"/>
      <stop offset=".87" stop-color="#d63a54"/>
      <stop offset="1" stop-color="#dd3a51"/>
    </linearGradient>
  </defs>
  <polygon class="st18" points="120.79 46.15 112.4 25.8 104.01 5.46 120.79 5.46 137.58 5.46 129.19 25.8 120.79 46.15"/>
  <polygon class="st1" points="120.79 199.45 129.19 219.79 137.58 240.13 120.79 240.13 104.01 240.13 112.4 219.79 120.79 199.45"/>
  <polygon class="st0" points="53.87 84.42 32.1 81.26 10.32 78.1 18.89 63.66 27.45 49.22 40.66 66.82 53.87 84.42"/>
  <polygon class="st3" points="53.48 162.11 39.6 179.19 25.72 196.26 17.72 181.51 9.71 166.75 31.6 164.43 53.48 162.11"/>
  <path class="st8" d="M15.74,109.81c6.88,0,27.34,12.45,27.34,12.45,0,0-20.46,12.45-27.34,12.45s-12.45-5.57-12.45-12.45,5.58-12.45,12.45-12.45Z"/>
  <path class="st7" d="M42.12,138.16l28.06-11.69v6.24c0,7.8-6.31,14.11-14.1,14.11,0,0-45.17,5.24-46.2,4.75,0,0,32.24-13.41,32.24-13.41Z"/>
  <path class="st4" d="M56.08,97c7.79,0,14.1,6.33,14.1,14.11v6.75l-28.06-11.67-31.99-13.32c.71-.22,45.95,4.13,45.95,4.13Z"/>
  <path class="st6" d="M56.37,207.67c3.71-5.79,25.23-16.31,25.23-16.31,0,0-.54,23.95-4.25,29.74s-11.41,7.48-17.2,3.77c-5.8-3.71-7.49-11.41-3.78-17.2h0Z"/>
  <path class="st5" d="M94.47,200.74l5.29-29.94,5.25,3.36c6.57,4.2,8.48,12.93,4.28,19.48,0,0-19.94,40.87-20.9,41.47l6.08-34.37Z"/>
  <path class="st2" d="M67.33,166.78c4.2-6.56,12.93-8.47,19.49-4.27l5.68,3.64-24.96,17.34-28.46,19.76c.2-.7,28.25-36.47,28.25-36.47h0Z"/>
  <path class="st15" d="M79.63,25.41c3.35,6.01,2.42,29.94,2.42,29.94,0,0-20.83-11.82-24.18-17.83s-1.19-13.59,4.82-16.94c6.02-3.34,13.6-1.18,16.94,4.83Z"/>
  <path class="st14" d="M67.7,62.24l23.86,18.83-5.45,3.04c-6.81,3.79-15.4,1.35-19.19-5.45,0,0-26.55-36.92-26.63-38.05,0,0,27.41,21.63,27.41,21.63Z"/>
  <path class="st11" d="M110.45,54.42c3.79,6.8,1.33,15.4-5.47,19.18l-5.89,3.28-3.46-30.2-3.93-34.43c.53.52,18.75,42.17,18.75,42.17Z"/>
  <path class="st10" d="M163.07,219.56c-3.35-6.01-2.42-29.94-2.42-29.94,0,0,20.83,11.82,24.18,17.83s1.19,13.59-4.82,16.94c-6.02,3.33-13.6,1.18-16.94-4.83Z"/>
  <path class="st17" d="M175,182.72l-23.86-18.83,5.45-3.04c6.81-3.79,15.4-1.35,19.19,5.45,0,0,26.55,36.92,26.63,38.05l-27.41-21.63Z"/>
  <path class="st12" d="M132.25,190.54c-3.79-6.8-1.33-15.4,5.47-19.18l5.89-3.28,3.46,30.2,3.93,34.43c-.53-.52-18.75-42.17-18.75-42.17Z"/>
  <path class="st13" d="M184.6,37.06c-3.4,5.98-24.34,17.6-24.34,17.6,0,0-.7-23.94,2.7-29.92s11-8.06,16.98-4.66,8.06,11,4.66,16.98Z"/>
  <path class="st16" d="M146.91,45.96l-3.73,30.17-5.42-3.09c-6.78-3.86-9.14-12.47-5.29-19.23,0,0,17.79-41.85,18.72-42.5l-4.28,34.65h0Z"/>
  <path class="st9" d="M175.77,78.45c-3.85,6.77-12.47,9.12-19.24,5.27l-5.86-3.34,24.03-18.62,27.4-21.21c-.17.73-26.33,37.9-26.33,37.9h0Z"/>
  <path class="st19" d="M121.84,100.01c4.79,0,8.6.59,10.76,1.18v7.74l-.33.33c-2.56-.46-5.51-.98-9.19-.98-4.53,0-7.68.79-9.58,2.3-2.1,1.71-3.28,6.17-3.28,10.83v2.36c0,4.92,1.25,9.32,3.48,11.02,1.9,1.44,5.51,1.97,8.86,1.97s8.14-.79,10.63-1.44l.33.33v7.61c-2.43.79-6.23,1.77-12.66,1.77-14.5,0-20.21-7.48-20.21-22.96s7.15-22.06,21.19-22.06h0Z"/>
  <path class="st19" d="M152.48,109.06c9.05,0,16.21,5.64,16.21,18.24,0,11.09-6.17,17.85-16.21,17.85s-16.21-6.76-16.21-17.85c0-12.59,7.16-18.24,16.21-18.24h0ZM152.48,137.54c5.58,0,7.41-2.69,7.41-8.14v-4.59c0-5.45-1.97-8.14-7.41-8.14s-7.41,2.69-7.41,8.14v4.59c0,5.51,1.84,8.14,7.41,8.14Z"/>
  <path class="st19" d="M203.4,121.4v23.03h-8.79v-23.55c0-2.36-.79-3.74-5.51-3.74-2.43,0-5.18.66-6.63,1.58v25.72h-8.79v-34.64h6.3l2.3,5.12h.33c1.57-3.61,4.4-5.84,9.78-5.84,6.61-.02,11.01,3.53,11.01,12.32h0Z"/>
  <path class="st19" d="M239.03,121.4v23.03h-8.79v-23.55c0-2.36-.79-3.74-5.51-3.74-2.43,0-5.18.66-6.63,1.58v25.72h-8.79v-34.64h6.3l2.3,5.12h.33c1.57-3.61,4.4-5.84,9.78-5.84,6.61-.02,11.01,3.53,11.01,12.32h0Z"/>
  <path class="st19" d="M251.76,128.94v2.76c0,4.53,2.03,6.23,9.64,6.23,4.46,0,8.46-.79,10.43-1.51l.33.33v6.63c-1.97.85-6.04,1.77-11.02,1.77-13.25,0-17.58-6.04-17.58-17.85,0-12.47,5.64-18.24,16.01-18.24,8.33,0,13.71,4.53,13.71,13.19v6.69h-21.52,0ZM251.76,123.17h13.65v-2.56c0-3.28-1.18-4.53-6.04-4.53h-.66c-5.44,0-6.82,1.97-6.95,7.09Z"/>
  <path class="st19" d="M294.4,109.06c3.48,0,6.63.59,7.94,1.05v7.15l-.33.33c-2.1-.46-4.99-.79-7.48-.79-6.56,0-8.79,2.1-8.79,8.66v3.21c0,6.76,1.84,8.73,8.6,8.73,3.02,0,6.56-.66,8.66-1.18l.33.26v7.15c-1.97.72-5.32,1.51-10.17,1.51-11.68,0-16.27-6.43-16.27-18.04,0-12.53,6.23-18.04,17.51-18.04Z"/>
  <path class="st19" d="M329.51,137.14v7.15c-.98.26-4.26.85-7.28.85-8.99,0-12.14-5.25-12.14-13.12v-14.83h-4.79v-7.41h4.79v-6.63l5.58-2.3h3.15v8.92h10.3v7.41h-10.3v15.62c0,3.15.52,4.33,4.72,4.33,2.03,0,4.33-.13,5.71-.33l.26.34h0Z"/>
  <path class="st19" d="M382.79,100.6v43.83h-9.05v-18.17h-17.19v18.17h-9.05v-43.83h9.05v17.52h17.19v-17.52s9.05,0,9.05,0Z"/>
  <path class="st19" d="M424.19,143.97l-.07.46h-8.99l-6.56-14.96h-10.24v14.96h-8.53v-43.83h18.77c10.17,0,14.96,4.79,14.96,14.04,0,6.5-2.23,11.02-6.56,13.25l7.22,16.08ZM398.33,122.71h10.69c4.4,0,6.04-2.76,6.04-6.43v-2.3c0-4.4-2.17-5.71-6.1-5.71h-10.63v14.44Z"/>
</svg>